<?xml version="1.0" encoding="UTF-8" standalone="no"?>
<!-- Created with Inkscape (http://www.inkscape.org/) -->

<svg
   version="1.1"
   id="svg18"
   width="56"
   height="57"
   viewBox="0 0 56 57"
   sodipodi:docname="help3.png.svg"
   inkscape:export-filename="C:\Users\Russell\Desktop\WorkingSchool\PortfolioWebsite\rustyjux.github.io\fruit-finder\images\help3.png"
   inkscape:export-xdpi="96"
   inkscape:export-ydpi="96"
   inkscape:version="1.1.1 (3bf5ae0d25, 2021-09-20)"
   xmlns:inkscape="http://www.inkscape.org/namespaces/inkscape"
   xmlns:sodipodi="http://sodipodi.sourceforge.net/DTD/sodipodi-0.dtd"
   xmlns="http://www.w3.org/2000/svg"
   xmlns:svg="http://www.w3.org/2000/svg">
  <defs
     id="defs22" />
  <sodipodi:namedview
     id="namedview20"
     pagecolor="#ffffff"
     bordercolor="#666666"
     borderopacity="1.0"
     inkscape:pageshadow="2"
     inkscape:pageopacity="0.0"
     inkscape:pagecheckerboard="0"
     showgrid="false"
     inkscape:zoom="7.3859649"
     inkscape:cx="20.376485"
     inkscape:cy="40.279097"
     inkscape:window-width="1920"
     inkscape:window-height="1027"
     inkscape:window-x="1912"
     inkscape:window-y="-8"
     inkscape:window-maximized="1"
     inkscape:current-layer="layer1" />
  <g
     inkscape:groupmode="layer"
     id="layer1"
     inkscape:label="back">
    <path
       style="fill:#ffffff;stroke-width:0.0255859"
       d="m 26.690793,34.732793 c -1.190813,-0.424513 -1.720699,-1.431541 -1.453457,-2.762238 0.348653,-1.736073 1.475322,-3.481464 3.811545,-5.904692 2.40868,-2.498385 2.906425,-3.30523 2.889075,-4.683199 -0.01247,-0.990304 -0.525758,-1.938642 -1.575138,-2.910183 -2.776566,-2.570611 -6.466143,-0.393298 -6.466143,3.815834 0,0.901209 -0.494307,1.377578 -1.624704,1.565747 -1.182882,0.196905 -1.926166,-0.0075 -2.599984,-0.715178 -0.585127,-0.614486 -0.711569,-1.116103 -0.616448,-2.445543 0.1495,-2.089462 2.05906,-4.707081 4.26725,-5.849533 1.542623,-0.798107 3.281765,-1.189537 5.312603,-1.195712 3.742359,-0.01138 6.139624,1.236211 7.414809,3.858827 0.632833,1.301522 0.854622,2.275 0.85428,3.749609 -6.77e-4,2.632937 -0.791109,4.380812 -3.071273,6.790918 -1.882095,1.989353 -2.707813,3.401817 -2.90145,4.963192 -0.136337,1.09934 -0.441138,1.532043 -1.225916,1.740338 -0.817402,0.216956 -2.381916,0.207518 -3.015049,-0.01819 z"
       id="path2128" />
    <path
       style="fill:#ffffff;stroke-width:0.0255859"
       d="m 26.132433,42.722138 c -0.901304,-0.332629 -1.080318,-0.805172 -0.997327,-2.632648 0.04122,-0.907686 0.09925,-1.129572 0.371074,-1.418919 0.436537,-0.464672 1.536892,-0.679791 2.99382,-0.585292 2.008523,0.130277 2.316917,0.408766 2.409674,2.176015 0.06736,1.283295 -0.143268,1.955777 -0.733765,2.342783 -0.512757,0.336055 -3.237242,0.415604 -4.043476,0.118061 z"
       id="path2167"
       inkscape:export-filename="C:\Users\Russell\Desktop\WorkingSchool\PortfolioWebsite\rustyjux.github.io\fruit-finder\images\help3"
       inkscape:export-xdpi="96"
       inkscape:export-ydpi="96" />
    <path
       style="fill:#ffffff;stroke-width:0.0255859"
       d="m 26.690793,34.732793 c -1.190813,-0.424513 -1.720699,-1.431541 -1.453457,-2.762238 0.348653,-1.736073 1.475322,-3.481464 3.811545,-5.904692 2.40868,-2.498385 2.906425,-3.30523 2.889075,-4.683199 -0.01247,-0.990304 -0.525758,-1.938642 -1.575138,-2.910183 -2.776566,-2.570611 -6.466143,-0.393298 -6.466143,3.815834 0,0.901209 -0.494307,1.377578 -1.624704,1.565747 -1.182882,0.196905 -1.926166,-0.0075 -2.599984,-0.715178 -0.585127,-0.614486 -0.711569,-1.116103 -0.616448,-2.445543 0.1495,-2.089462 2.05906,-4.707081 4.26725,-5.849533 1.542623,-0.798107 3.281765,-1.189537 5.312603,-1.195712 3.742359,-0.01138 6.139624,1.236211 7.414809,3.858827 0.632833,1.301522 0.854622,2.275 0.85428,3.749609 -6.77e-4,2.632937 -0.791109,4.380812 -3.071273,6.790918 -1.882095,1.989353 -2.707813,3.401817 -2.90145,4.963192 -0.136337,1.09934 -0.441138,1.532043 -1.225916,1.740338 -0.817402,0.216956 -2.381916,0.207518 -3.015049,-0.01819 z"
       id="path2206" />
    <path
       style="fill:#ffffff;stroke-width:0.0255859"
       d="m 26.690793,34.732793 c -1.190813,-0.424513 -1.720699,-1.431541 -1.453457,-2.762238 0.348653,-1.736073 1.475322,-3.481464 3.811545,-5.904692 2.40868,-2.498385 2.906425,-3.30523 2.889075,-4.683199 -0.01247,-0.990304 -0.525758,-1.938642 -1.575138,-2.910183 -2.776566,-2.570611 -6.466143,-0.393298 -6.466143,3.815834 0,0.901209 -0.494307,1.377578 -1.624704,1.565747 -1.182882,0.196905 -1.926166,-0.0075 -2.599984,-0.715178 -0.585127,-0.614486 -0.711569,-1.116103 -0.616448,-2.445543 0.1495,-2.089462 2.05906,-4.707081 4.26725,-5.849533 1.542623,-0.798107 3.281765,-1.189537 5.312603,-1.195712 3.742359,-0.01138 6.139624,1.236211 7.414809,3.858827 0.632833,1.301522 0.854622,2.275 0.85428,3.749609 -6.77e-4,2.632937 -0.791109,4.380812 -3.071273,6.790918 -1.882095,1.989353 -2.707813,3.401817 -2.90145,4.963192 -0.136337,1.09934 -0.441138,1.532043 -1.225916,1.740338 -0.817402,0.216956 -2.381916,0.207518 -3.015049,-0.01819 z"
       id="path2245" />
    <path
       style="fill:#ffffff;stroke-width:0.0255859"
       d="m 26.690793,34.732793 c -1.190813,-0.424513 -1.720699,-1.431541 -1.453457,-2.762238 0.348653,-1.736073 1.475322,-3.481464 3.811545,-5.904692 2.40868,-2.498385 2.906425,-3.30523 2.889075,-4.683199 -0.01247,-0.990304 -0.525758,-1.938642 -1.575138,-2.910183 -2.776566,-2.570611 -6.466143,-0.393298 -6.466143,3.815834 0,0.901209 -0.494307,1.377578 -1.624704,1.565747 -1.182882,0.196905 -1.926166,-0.0075 -2.599984,-0.715178 -0.585127,-0.614486 -0.711569,-1.116103 -0.616448,-2.445543 0.1495,-2.089462 2.05906,-4.707081 4.26725,-5.849533 1.542623,-0.798107 3.281765,-1.189537 5.312603,-1.195712 3.742359,-0.01138 6.139624,1.236211 7.414809,3.858827 0.632833,1.301522 0.854622,2.275 0.85428,3.749609 -6.77e-4,2.632937 -0.791109,4.380812 -3.071273,6.790918 -1.882095,1.989353 -2.707813,3.401817 -2.90145,4.963192 -0.136337,1.09934 -0.441138,1.532043 -1.225916,1.740338 -0.817402,0.216956 -2.381916,0.207518 -3.015049,-0.01819 z"
       id="path2284" />
    <path
       style="fill:#ffffff;stroke-width:0.0255859"
       d="m 26.690793,34.732793 c -1.190813,-0.424513 -1.720699,-1.431541 -1.453457,-2.762238 0.348653,-1.736073 1.475322,-3.481464 3.811545,-5.904692 2.40868,-2.498385 2.906425,-3.30523 2.889075,-4.683199 -0.01247,-0.990304 -0.525758,-1.938642 -1.575138,-2.910183 -2.776566,-2.570611 -6.466143,-0.393298 -6.466143,3.815834 0,0.901209 -0.494307,1.377578 -1.624704,1.565747 -1.182882,0.196905 -1.926166,-0.0075 -2.599984,-0.715178 -0.585127,-0.614486 -0.711569,-1.116103 -0.616448,-2.445543 0.1495,-2.089462 2.05906,-4.707081 4.26725,-5.849533 1.542623,-0.798107 3.281765,-1.189537 5.312603,-1.195712 3.742359,-0.01138 6.139624,1.236211 7.414809,3.858827 0.632833,1.301522 0.854622,2.275 0.85428,3.749609 -6.77e-4,2.632937 -0.791109,4.380812 -3.071273,6.790918 -1.882095,1.989353 -2.707813,3.401817 -2.90145,4.963192 -0.136337,1.09934 -0.441138,1.532043 -1.225916,1.740338 -0.817402,0.216956 -2.381916,0.207518 -3.015049,-0.01819 z"
       id="path2323" />
    <path
       style="fill:#ffffff;stroke-width:0.0255859"
       d="m 26.690793,34.732793 c -1.190813,-0.424513 -1.720699,-1.431541 -1.453457,-2.762238 0.348653,-1.736073 1.475322,-3.481464 3.811545,-5.904692 2.40868,-2.498385 2.906425,-3.30523 2.889075,-4.683199 -0.01247,-0.990304 -0.525758,-1.938642 -1.575138,-2.910183 -2.776566,-2.570611 -6.466143,-0.393298 -6.466143,3.815834 0,0.901209 -0.494307,1.377578 -1.624704,1.565747 -1.182882,0.196905 -1.926166,-0.0075 -2.599984,-0.715178 -0.585127,-0.614486 -0.711569,-1.116103 -0.616448,-2.445543 0.1495,-2.089462 2.05906,-4.707081 4.26725,-5.849533 1.542623,-0.798107 3.281765,-1.189537 5.312603,-1.195712 3.742359,-0.01138 6.139624,1.236211 7.414809,3.858827 0.632833,1.301522 0.854622,2.275 0.85428,3.749609 -6.77e-4,2.632937 -0.791109,4.380812 -3.071273,6.790918 -1.882095,1.989353 -2.707813,3.401817 -2.90145,4.963192 -0.136337,1.09934 -0.441138,1.532043 -1.225916,1.740338 -0.817402,0.216956 -2.381916,0.207518 -3.015049,-0.01819 z"
       id="path2362" />
    <path
       style="fill:#ffffff;stroke-width:0.0255859"
       d="m 26.690793,34.732793 c -1.190813,-0.424513 -1.720699,-1.431541 -1.453457,-2.762238 0.348653,-1.736073 1.475322,-3.481464 3.811545,-5.904692 2.40868,-2.498385 2.906425,-3.30523 2.889075,-4.683199 -0.01247,-0.990304 -0.525758,-1.938642 -1.575138,-2.910183 -2.776566,-2.570611 -6.466143,-0.393298 -6.466143,3.815834 0,0.901209 -0.494307,1.377578 -1.624704,1.565747 -1.182882,0.196905 -1.926166,-0.0075 -2.599984,-0.715178 -0.585127,-0.614486 -0.711569,-1.116103 -0.616448,-2.445543 0.1495,-2.089462 2.05906,-4.707081 4.26725,-5.849533 1.542623,-0.798107 3.281765,-1.189537 5.312603,-1.195712 3.742359,-0.01138 6.139624,1.236211 7.414809,3.858827 0.632833,1.301522 0.854622,2.275 0.85428,3.749609 -6.77e-4,2.632937 -0.791109,4.380812 -3.071273,6.790918 -1.882095,1.989353 -2.707813,3.401817 -2.90145,4.963192 -0.136337,1.09934 -0.441138,1.532043 -1.225916,1.740338 -0.817402,0.216956 -2.381916,0.207518 -3.015049,-0.01819 z"
       id="path2401" />
    <path
       style="fill:#ffffff;stroke-width:0.0255859"
       d="m 26.690793,34.732793 c -1.190813,-0.424513 -1.720699,-1.431541 -1.453457,-2.762238 0.348653,-1.736073 1.475322,-3.481464 3.811545,-5.904692 2.40868,-2.498385 2.906425,-3.30523 2.889075,-4.683199 -0.01247,-0.990304 -0.525758,-1.938642 -1.575138,-2.910183 -2.776566,-2.570611 -6.466143,-0.393298 -6.466143,3.815834 0,0.901209 -0.494307,1.377578 -1.624704,1.565747 -1.182882,0.196905 -1.926166,-0.0075 -2.599984,-0.715178 -0.585127,-0.614486 -0.711569,-1.116103 -0.616448,-2.445543 0.1495,-2.089462 2.05906,-4.707081 4.26725,-5.849533 1.542623,-0.798107 3.281765,-1.189537 5.312603,-1.195712 3.742359,-0.01138 6.139624,1.236211 7.414809,3.858827 0.632833,1.301522 0.854622,2.275 0.85428,3.749609 -6.77e-4,2.632937 -0.791109,4.380812 -3.071273,6.790918 -1.882095,1.989353 -2.707813,3.401817 -2.90145,4.963192 -0.136337,1.09934 -0.441138,1.532043 -1.225916,1.740338 -0.817402,0.216956 -2.381916,0.207518 -3.015049,-0.01819 z"
       id="path2440" />
    <path
       style="fill:#ffffff;stroke-width:0.0255859"
       d="M 24.666179,53.270823 C 14.317275,51.860795 5.6113054,44.241303 3.1201237,34.41365 1.9687691,29.871584 2.1381798,24.792092 3.5905477,20.308789 4.162107,18.544446 5.8403029,15.211806 6.8903015,13.755981 10.904347,8.1905041 16.992607,4.475374 24.235154,3.1719431 c 1.85886,-0.3345363 5.609202,-0.4033102 7.60835,-0.1395221 9.100514,1.2008157 16.638427,7.011616 19.950689,15.379519 2.24945,5.682877 2.407707,12.126065 0.445893,18.153871 -0.636049,1.954302 -2.219885,5.110568 -3.358048,6.691909 -4.106128,5.704978 -10.14532,9.150054 -17.670648,10.080272 -1.540393,0.190411 -4.908381,0.155847 -6.545211,-0.06717 z m 6.375114,-5.963 c 4.057051,-0.728935 8.39065,-3.264332 11.200987,-6.553199 2.554365,-2.989311 4.062534,-6.191403 4.624024,-9.817569 0.264907,-1.710794 0.166941,-4.847861 -0.209723,-6.715773 -1.286443,-6.379593 -5.322785,-11.448171 -11.100245,-13.93897 -2.369731,-1.0216467 -4.641482,-1.480748 -7.32712,-1.480748 -3.082908,0 -5.551103,0.5821466 -8.326603,1.963906 -5.53891,2.757499 -9.476958,7.754981 -10.7208892,13.605076 -0.3417637,1.607284 -0.3431741,5.421484 -0.0026,7.04038 1.3025062,6.191435 5.2709332,11.246971 11.1325272,14.182165 3.795089,1.900392 6.918304,2.399521 10.729646,1.714732 z"
       id="path3108" />
  </g>
  <g
     inkscape:groupmode="layer"
     inkscape:label="Image"
     id="g24">
    <g
       id="g190">
      <path
         style="fill:#cbcbcb;fill-opacity:1"
         d="m 28,42.842105 c -18.6666667,-28.561403 -9.333333,-14.280702 0,0 z"
         id="path202"
         sodipodi:nodetypes="cc" />
      <path
         style="fill:#8c8c8c;fill-opacity:1"
         d="m 25.662281,38.75 c -17.1081873,-25.833333 -8.554094,-12.916667 0,0 z M 30.157895,40 c -20.105263,-26.666667 -10.052632,-13.333333 0,0 z"
         id="path196"
         sodipodi:nodetypes="cccc" />
      <path
         style="fill:#838383;fill-opacity:1"
         d="m 35.127555,27.25 c -23.41837,-18.1666667 -11.709185,-9.083333 0,0 z"
         id="path194"
         sodipodi:nodetypes="cc" />
      <path
         style="fill:#686868;fill-opacity:1"
         d="M 0,28.5 C 0,0 0,0 28,0 56,0 56,0 56,28.5 56,57 56,57 28,57 0,57 0,57 0,28.5 Z M 38.917838,51.392611 C 55.518645,44.46909 58.939023,20.66328 45.042068,8.7680042 30.619724,-3.5769858 7.0303377,4.0999474 2.9177448,22.47695 -1.6972284,43.098824 18.980719,59.707573 38.917838,51.392611 Z M 22.885071,46.653014 C 8.5678946,41.407368 4.2804194,24.871222 14.589215,14.657148 27.049087,2.3117636 47,10.809228 47,28.461503 47,40.697599 33.802792,50.65314 22.885071,46.653014 Z M 31,40.5 C 31,38.388889 30.533333,38 28,38 c -2.533333,0 -3,0.388889 -3,2.5 0,2.111111 0.466667,2.5 3,2.5 2.533333,0 3,-0.388889 3,-2.5 z m 0,-7.59879 C 31,31.746875 32.35,29.541331 34,28 37.556426,24.677801 38.05097,19.519461 35.155832,15.944117 32.520089,12.689112 24.986997,12.724137 21.49186,16.007647 18.024475,19.265087 18.029297,24 21.5,24 c 1.802469,0 2.5,-0.538095 2.5,-1.928571 0,-4.023083 3.823698,-6.104874 6.428571,-3.5 2.19014,2.190139 1.963132,4.156663 -0.77646,6.72632 C 24.316484,30.302412 23.516573,35 28,35 c 2.380403,0 3,-0.433468 3,-2.09879 z"
         id="path192" />
    </g>
  </g>
</svg>
