<?xml version="1.0" encoding="UTF-8" standalone="no"?>
<!-- Created with Inkscape (http://www.inkscape.org/) -->

<svg
   version="1.1"
   id="svg18"
   width="56"
   height="57"
   viewBox="0 0 56 57"
   sodipodi:docname="help3.png.svg"
   inkscape:version="1.1.1 (3bf5ae0d25, 2021-09-20)"
   xmlns:inkscape="http://www.inkscape.org/namespaces/inkscape"
   xmlns:sodipodi="http://sodipodi.sourceforge.net/DTD/sodipodi-0.dtd"
   xmlns="http://www.w3.org/2000/svg"
   xmlns:svg="http://www.w3.org/2000/svg">
  <defs
     id="defs22" />
  <sodipodi:namedview
     id="namedview20"
     pagecolor="#ffffff"
     bordercolor="#666666"
     borderopacity="1.0"
     inkscape:pageshadow="2"
     inkscape:pageopacity="0.0"
     inkscape:pagecheckerboard="0"
     showgrid="false"
     inkscape:zoom="7.3859649"
     inkscape:cx="29.447743"
     inkscape:cy="40.279097"
     inkscape:window-width="1920"
     inkscape:window-height="1027"
     inkscape:window-x="1912"
     inkscape:window-y="-8"
     inkscape:window-maximized="1"
     inkscape:current-layer="g24" />
  <g
     inkscape:groupmode="layer"
     inkscape:label="Image"
     id="g24">
    <g
       id="g190">
      <path
         style="fill:#cbcbcb;fill-opacity:1"
         d="m 28,42.842105 c -18.6666667,-28.561403 -9.333333,-14.280702 0,0 z"
         id="path202"
         sodipodi:nodetypes="cc" />
      <path
         style="fill:#8c8c8c;fill-opacity:1"
         d="m 25.662281,38.75 c -17.1081873,-25.833333 -8.554094,-12.916667 0,0 z M 30.157895,40 c -20.105263,-26.666667 -10.052632,-13.333333 0,0 z"
         id="path196"
         sodipodi:nodetypes="cccc" />
      <path
         style="fill:#838383;fill-opacity:1"
         d="m 35.127555,27.25 c -23.41837,-18.1666667 -11.709185,-9.083333 0,0 z"
         id="path194"
         sodipodi:nodetypes="cc" />
      <path
         style="fill:#686868;fill-opacity:1"
         d="M 0,28.5 C 0,0 0,0 28,0 56,0 56,0 56,28.5 56,57 56,57 28,57 0,57 0,57 0,28.5 Z M 38.917838,51.392611 C 55.518645,44.46909 58.939023,20.66328 45.042068,8.7680042 30.619724,-3.5769858 7.0303377,4.0999474 2.9177448,22.47695 -1.6972284,43.098824 18.980719,59.707573 38.917838,51.392611 Z M 22.885071,46.653014 C 8.5678946,41.407368 4.2804194,24.871222 14.589215,14.657148 27.049087,2.3117636 47,10.809228 47,28.461503 47,40.697599 33.802792,50.65314 22.885071,46.653014 Z M 31,40.5 C 31,38.388889 30.533333,38 28,38 c -2.533333,0 -3,0.388889 -3,2.5 0,2.111111 0.466667,2.5 3,2.5 2.533333,0 3,-0.388889 3,-2.5 z m 0,-7.59879 C 31,31.746875 32.35,29.541331 34,28 37.556426,24.677801 38.05097,19.519461 35.155832,15.944117 32.520089,12.689112 24.986997,12.724137 21.49186,16.007647 18.024475,19.265087 18.029297,24 21.5,24 c 1.802469,0 2.5,-0.538095 2.5,-1.928571 0,-4.023083 3.823698,-6.104874 6.428571,-3.5 2.19014,2.190139 1.963132,4.156663 -0.77646,6.72632 C 24.316484,30.302412 23.516573,35 28,35 c 2.380403,0 3,-0.433468 3,-2.09879 z"
         id="path192" />
    </g>
  </g>
</svg>
